<!DOCTYPE svg PUBLIC "-//W3C//DTD SVG 1.1//EN" "https://www.w3.org/Graphics/SVG/1.1/DTD/svg11.dtd"><svg xmlns="http://www.w3.org/2000/svg" id="sfn-svg" class="sfn-workflow-graph" width="569" height="607">
    
    
<g transform="translate(14.5,19.3671875)"><g class="nodes"><g class="node-container" transform="translate(274.73291015625,18.5)"><g class="node anchor"><circle class="shape" x="-15.8671875" y="-8.5" r="25.8671875"/><text class="label"><tspan xml:space="preserve" text-anchor="middle" alignment-baseline="central">Start</tspan></text></g></g><g class="node-container" transform="translate(274.73291015625,552.760009765625)"><g class="node anchor"><circle class="shape" x="-12.1796875" y="-8.5" r="22.1796875"/><text class="label"><tspan xml:space="preserve" text-anchor="middle" alignment-baseline="central">End</tspan></text></g></g><g class="node-container" transform="translate(274.73291015625,80.5)"><g class="node state Pass NotYetStarted"><rect class="shape" rx="5" ry="5" x="-23.8671875" y="-18.5" width="47.734375" height="37"/><text class="label"><tspan xml:space="preserve" text-anchor="middle" alignment-baseline="central">Pass</tspan></text></g></g><g class="node-container" transform="translate(274.73291015625,285.60400390625)"><g class="node state Map NotYetStarted Container" transform="translate(-267.23291015625,-161.60400390625)"><rect class="shape" rx="5" ry="5" x="-10" y="-10" width="532.4658203125" height="321.2080078125"/><rect class="shape" rx="5" ry="5" x="-5" y="-5" width="533.4658203125" height="322.2080078125"/><rect class="shape" rx="5" ry="5" x="0" y="0" width="534.4658203125" height="323.2080078125"/><g class="branches" transform="translate(20,20)"><g class="branch" transform="translate(0,0)"><g class="nodes"><g class="node-container" transform="translate(196.61572265625,141.60400199890137)"><g class="node state Parallel NotYetStarted Container" transform="translate(-196.61572265625,-79.552001953125)"><rect class="shape" rx="31.82080078125" ry="31.82080078125" x="0" y="0" width="393.2314453125" height="159.10400390625"/><g class="branches" transform="translate(20,40)"><g class="branch" transform="translate(0,0)"><g class="nodes"><g class="node-container" transform="translate(55.7265625,18.5)"><g class="node state Task NotYetStarted"><rect class="shape" rx="5" ry="5" x="-55.7265625" y="-18.5" width="111.453125" height="37"/><text class="label"><tspan xml:space="preserve" text-anchor="middle" alignment-baseline="central">Check BrandId</tspan></text></g></g></g><g class="edges"/></g><g class="branch" transform="translate(131.453125,0)"><g class="nodes"><g class="node-container" transform="translate(175.16114044189453,80.5780029296875)"><g class="node state Fail NotYetStarted"><rect class="shape" rx="5" ry="5" x="-46.6171875" y="-18.5260009765625" width="93.234375" height="37.052001953125"/><text class="label"><tspan xml:space="preserve" text-anchor="middle" alignment-baseline="central">Bad Images</tspan></text></g></g><g class="node-container" transform="translate(44.271976470947266,80.5780029296875)"><g class="node state Pass NotYetStarted"><rect class="shape" rx="5" ry="5" x="-44.271976470947266" y="-18.5260009765625" width="88.54395294189453" height="37.052001953125"/><text class="label"><tspan xml:space="preserve" text-anchor="middle" alignment-baseline="central">Images OK</tspan></text></g></g><g class="node-container" transform="translate(109.7165584564209,18.5260009765625)"><g class="node state Choice NotYetStarted"><rect class="shape" rx="5" ry="5" x="-93.15625" y="-18.5260009765625" width="186.3125" height="37.052001953125"/><text class="label"><tspan xml:space="preserve" text-anchor="middle" alignment-baseline="central">Check Image Requirement</tspan></text></g></g></g><g class="edges"><g class="edge"><path class="path" marker-end="url(#arrowhead15)" d="M70.6388058743368,37.052001953125L66.2443343071052,39.13533528645833C61.849862739873615,41.218668619791664,53.06091960541044,45.38533528645833,48.66644803817885,49.552001953125C44.271976470947266,53.718668619791664,44.271976470947266,57.88533528645833,44.27197647094726,59.96866861979166L44.271976470947266,62.052001953125" style="fill: none;"/><defs><marker id="arrowhead15" viewBox="0 0 10 10" refX="9" refY="5" markerUnits="strokeWidth" markerWidth="8" markerHeight="6" orient="auto"><path d="M 0 0 L 10 5 L 0 10 z"/></marker></defs></g><g class="edge"><path class="path" marker-end="url(#arrowhead16)" d="M148.794311038505,37.052001953125L153.18878260573658,39.13533528645833C157.58325417296817,41.218668619791664,166.37219730743135,45.38533528645833,170.76666887466294,49.552001953125C175.16114044189453,53.718668619791664,175.16114044189453,57.88533528645833,175.16114044189453,59.96866861979166L175.16114044189453,62.052001953125" style="fill: none;"/><defs><marker id="arrowhead16" viewBox="0 0 10 10" refX="9" refY="5" markerUnits="strokeWidth" markerWidth="8" markerHeight="6" orient="auto"><path d="M 0 0 L 10 5 L 0 10 z"/></marker></defs></g></g></g></g><path class="path" marker-end="url(#arrowhead17)" d="M196.61572265625,0L196.61572265625,3.333333333333333C196.61572265625,6.666666666666666,196.61572265625,13.333333333333332,176.467529296875,16.666666666666664C156.3193359375,20,116.02294921875,20,95.874755859375,23.33333333333333C75.7265625,26.666666666666664,75.7265625,33.33333333333333,75.7265625,36.666666666666664L75.7265625,40" style="fill: none;"/><path class="path" marker-end="url(#arrowhead18)" d="M196.61572265625,0L196.61572265625,3.333333333333333C196.61572265625,6.666666666666666,196.61572265625,13.333333333333332,207.37471612294513,16.666666666666664C218.1337095896403,20,239.65169652303058,20,250.4106899897257,23.33333333333333C261.1696834564209,26.666666666666664,261.1696834564209,33.33333333333333,261.16968345642084,36.666666666666664L261.1696834564209,40" style="fill: none;"/></g></g><g class="node-container" transform="translate(196.61572265625,264.68200492858887)"><g class="node state Fail NotYetStarted"><rect class="shape" rx="5" ry="5" x="-135.8984375" y="-18.5260009765625" width="271.796875" height="37.052001953125"/><text class="label"><tspan xml:space="preserve" text-anchor="middle" alignment-baseline="central">Error Discovered During Data Validation</tspan></text></g></g><g class="node-container" transform="translate(463.8486328125,141.60400199890137)"><g class="node state Pass NotYetStarted"><rect class="shape" rx="5" ry="5" x="-30.6171875" y="-18.5" width="61.234375" height="37"/><text class="label"><tspan xml:space="preserve" text-anchor="middle" alignment-baseline="central">Delete</tspan></text></g></g><g class="node-container" transform="translate(330.232177734375,18.526000022888184)"><g class="node state Choice NotYetStarted"><rect class="shape" rx="5" ry="5" x="-47.9609375" y="-18.526000022888184" width="95.921875" height="37.05200004577637"/><text class="label"><tspan xml:space="preserve" text-anchor="middle" alignment-baseline="central">Check Entry</tspan></text></g></g></g><g class="edges"><g class="edge"><path class="path" marker-end="url(#arrowhead19)" d="M196.61572265625,221.15600395202637L196.61572265625,223.23933728535968C196.61572265625,225.32267061869302,196.61572265625,229.48933728535968,196.61572265625,233.65600395202634C196.61572265625,237.822670618693,196.61572265625,241.98933728535968,196.61572265625,244.07267061869302L196.61572265625,246.15600395202637" style="fill: none;"/><defs><marker id="arrowhead19" viewBox="0 0 10 10" refX="9" refY="5" markerUnits="strokeWidth" markerWidth="8" markerHeight="6" orient="auto"><path d="M 0 0 L 10 5 L 0 10 z"/></marker></defs></g><g class="edge"><path class="path" marker-end="url(#arrowhead20)" d="M282.271240234375,29.662622732289435L267.9953206380208,32.97751895120392C253.71940104166666,36.29241517011841,225.16756184895831,42.922207607947385,210.89164225260416,48.32043716019521C196.61572265625,53.71866671244303,196.61572265625,57.885333379109696,196.61572265625,59.96866671244303L196.61572265625,62.05200004577637" style="fill: none;"/><defs><marker id="arrowhead20" viewBox="0 0 10 10" refX="9" refY="5" markerUnits="strokeWidth" markerWidth="8" markerHeight="6" orient="auto"><path d="M 0 0 L 10 5 L 0 10 z"/></marker></defs></g><g class="edge"><path class="path" marker-end="url(#arrowhead21)" d="M378.193115234375,29.662622732289435L392.46903483072913,32.97751895120392C406.7449544270833,36.29241517011841,435.29679361979163,42.922207607947385,449.5727132161458,58.495770819049376C463.8486328125,74.06933403015137,463.8486328125,98.58666801452635,463.8486328125,110.84533500671387L463.8486328125,123.10400199890137" style="fill: none;"/><defs><marker id="arrowhead21" viewBox="0 0 10 10" refX="9" refY="5" markerUnits="strokeWidth" markerWidth="8" markerHeight="6" orient="auto"><path d="M 0 0 L 10 5 L 0 10 z"/></marker></defs></g></g></g></g><path class="path" marker-end="url(#arrowhead22)" d="M267.23291015625,0L267.23291015625,1.6666666666666665C267.23291015625,3.333333333333333,267.23291015625,6.666666666666666,281.0661214192708,8.333333333333332C294.89933268229163,10,322.5657552083333,10,336.39896647135413,11.666666666666664C350.232177734375,13.333333333333332,350.232177734375,16.666666666666664,350.23217773437494,18.333333333333332L350.232177734375,20" style="fill: none;"/></g></g><g class="node-container" transform="translate(162.69775390625,490.7340087890625)"><g class="node state Pass NotYetStarted"><rect class="shape" rx="5" ry="5" x="-83.5" y="-18.5" width="167" height="37"/><text class="label"><tspan xml:space="preserve" text-anchor="middle" alignment-baseline="central">Send Verification Email</tspan></text></g></g><g class="node-container" transform="translate(386.76806640625,490.7340087890625)"><g class="node state Fail NotYetStarted"><rect class="shape" rx="5" ry="5" x="-100.5703125" y="-18.5260009765625" width="201.140625" height="37.052001953125"/><text class="label"><tspan xml:space="preserve" text-anchor="middle" alignment-baseline="central">Need Programmer Attention</tspan></text></g></g></g><g class="edges"><g class="edge"><path class="path" marker-end="url(#arrowhead23)" d="M274.73291015625,99L274.73291015625,101.08333333333333C274.73291015625,103.16666666666666,274.73291015625,107.33333333333333,274.73291015625,111.5C274.73291015625,115.66666666666666,274.73291015625,119.83333333333331,274.73291015625,121.91666666666666L274.73291015625,124" style="fill: none;"/><defs><marker id="arrowhead23" viewBox="0 0 10 10" refX="9" refY="5" markerUnits="strokeWidth" markerWidth="8" markerHeight="6" orient="auto"><path d="M 0 0 L 10 5 L 0 10 z"/></marker></defs></g><g class="edge"><path class="path" marker-end="url(#arrowhead24)" d="M274.73291015625,44.3671875L274.73291015625,45.22265625C274.73291015625,46.078125,274.73291015625,47.7890625,274.73291015625,50.72786458333333C274.73291015625,53.666666666666664,274.73291015625,57.83333333333333,274.73291015625,59.91666666666666L274.73291015625,62" style="fill: none;"/><defs><marker id="arrowhead24" viewBox="0 0 10 10" refX="9" refY="5" markerUnits="strokeWidth" markerWidth="8" markerHeight="6" orient="auto"><path d="M 0 0 L 10 5 L 0 10 z"/></marker></defs></g><g class="edge"><path class="path" marker-end="url(#arrowhead25)" d="M170.7414486042714,447.2080078125L169.40083282126784,449.2913411458333C168.06021703826426,451.37467447916663,165.3789854722571,455.5413411458333,164.03836968925359,459.71234130859375C162.69775390625,463.88334147135413,162.69775390625,468.05867513020826,162.69775390625,470.1463419596354L162.69775390625,472.2340087890625" style="fill: none;"/><defs><marker id="arrowhead25" viewBox="0 0 10 10" refX="9" refY="5" markerUnits="strokeWidth" markerWidth="8" markerHeight="6" orient="auto"><path d="M 0 0 L 10 5 L 0 10 z"/></marker></defs></g><g class="edge"><path class="path" marker-end="url(#arrowhead26)" d="M378.7243717082286,447.2080078125L380.06498749123216,449.2913411458333C381.4056032742357,451.37467447916663,384.08683484024283,455.5413411458333,385.4274506232464,459.7080078125C386.76806640624994,463.87467447916663,386.76806640624994,468.04134114583326,386.7680664062499,470.12467447916663L386.76806640625,472.2080078125" style="fill: none;"/><defs><marker id="arrowhead26" viewBox="0 0 10 10" refX="9" refY="5" markerUnits="strokeWidth" markerWidth="8" markerHeight="6" orient="auto"><path d="M 0 0 L 10 5 L 0 10 z"/></marker></defs></g><g class="edge"><path class="path" marker-end="url(#arrowhead27)" d="M162.69775390625,509.2340087890625L162.69775390625,511.3216756184895C162.69775390625,513.4093424479166,162.69775390625,517.5846761067708,177.8075361138591,523.8532024459635C192.9173183214682,530.121728785156,223.13688273668637,538.4834478046871,238.2466649442955,542.6643073144527L253.3564471519046,546.8451668242183" style="fill: none;"/><defs><marker id="arrowhead27" viewBox="0 0 10 10" refX="9" refY="5" markerUnits="strokeWidth" markerWidth="8" markerHeight="6" orient="auto"><path d="M 0 0 L 10 5 L 0 10 z"/></marker></defs></g><g class="edge"><path class="path" marker-end="url(#arrowhead28)" d="M386.76806640625,509.260009765625L386.7680664062499,511.34334309895826C386.76806640624994,513.4266764322916,386.76806640624994,517.5933430989583,371.65828419864084,523.8575359420572C356.54850199103174,530.121728785156,326.3289375758136,538.4834478046871,311.2191553682045,542.6643073144527L296.1093731605954,546.8451668242183" style="fill: none;"/><defs><marker id="arrowhead28" viewBox="0 0 10 10" refX="9" refY="5" markerUnits="strokeWidth" markerWidth="8" markerHeight="6" orient="auto"><path d="M 0 0 L 10 5 L 0 10 z"/></marker></defs></g></g></g><style xmlns="http://www.w3.org/1999/xhtml">.node &gt; .shape {stroke: #555555;stroke-width: 0.6px;fill: #FFFFFF;} path {stroke: #555;background-color: #555;stroke-width: 1px;} .node.state.NotYetStarted &gt; .shape,.node.state.Container &gt; .shape {stroke-dasharray: 5 2;} .node.state.Failed &gt; .shape,rect.legend.Failed {fill: #DE322F;} .node.state.CaughtError &gt; .shape,rect.legend.CaughtError {fill: #FFA500;} .node.state.Succeeded &gt; .shape,rect.legend.Succeeded {fill: #2BD62E;} .node.state.InProgress &gt; .shape,rect.legend.InProgress {fill: #53c9ed;} .node.state.Cancelled &gt; .shape,rect.legend.Cancelled {fill: #dddddd;} .node.anchor &gt; .shape {fill: #FFDA75;} .node.state.hovered:not(.selected):not(.NotYetStarted) &gt; .shape,.node.selected &gt; .shape {stroke: #555555;stroke-width: 2px;} .node.state.Container.Failed &gt; .shape {fill: #EE9592;} .node.state.Container.CaughtError &gt; .shape {fill: #FFD27F;} .node.state.Container.Succeeded &gt; .shape {fill: #91EA9A;} .node.state.Container.InProgress &gt; .shape {fill :#A9E4F7;} .node.state.Container.Cancelled &gt; .shape {fill: #EEEEEE;} marker {fill: #555555;} .node.anchor,.node.state.NotYetStarted {cursor: default;} .node.state {cursor: pointer;} tspan .label {font-weight: normal;font-size: 12px;text-shadow: none;} </style></svg>